<svg xmlns="http://www.w3.org/2000/svg" viewBox="0 0 600 400"><defs><pattern id="v" width="12" height="12" patternUnits="userSpaceOnUse"><path d="M0 0h6v6H0zm6 6h6v6H6z" fill="#20211d" opacity=".13"/></pattern></defs><path fill="#20211d" d="M0 0h600v400H0z"/><g fill="#f1eedf"><circle cx="53" cy="70" r="2"/><circle cx="480" cy="45" r="3"/><circle cx="542" cy="220" r="2"/><circle cx="120" cy="330" r="3"/><circle cx="470" cy="342" r="2"/></g><ellipse cx="300" cy="200" rx="253" ry="100" transform="rotate(-25 300 200)" fill="none" stroke="#f1eedf" stroke-dasharray="8 10"/><circle cx="300" cy="195" r="125" fill="#f8d94d"/><circle cx="300" cy="195" r="125" fill="url(#v)"/><path d="M245 113q148-44 130 90-28 92-129 51m18-125q100-24 75 62-20 47-65 23" fill="none" stroke="#b68c3e" stroke-width="18"/><path d="m415 293 16 25 15-27" fill="none" stroke="#db3427" stroke-width="7"/></svg>
